<svg xmlns="http://www.w3.org/2000/svg" viewBox="0 0 200 60" role="img" aria-label="Freiwillige Feuerwehr Altenhammer">
  <!-- Maltese cross / Feuerwehrkreuz -->
  <g transform="translate(4, 4)">
    <!-- Cross arms -->
    <path d="M16 4 L36 4 L36 16 L48 16 L48 36 L36 36 L36 48 L16 48 L16 36 L4 36 L4 16 L16 16 Z" fill="#CC0000"/>
    <!-- Flame in center -->
    <path d="M26 12 C26 12 22 18 22 24 C22 28.4 24.7 32 26 32 C27.3 32 30 28.4 30 24 C30 18 26 12 26 12 Z" fill="white" opacity="0.9"/>
    <path d="M26 20 C26 20 23.5 23 23.5 26 C23.5 28 24.6 29.5 26 29.5 C27.4 29.5 28.5 28 28.5 26 C28.5 23 26 20 26 20 Z" fill="#F0A500"/>
  </g>
  <!-- Text -->
  <text x="66" y="26" font-family="Oswald, sans-serif" font-weight="700" font-size="18" fill="#CC0000" letter-spacing="0.5">FF ALTENHAMMER</text>
  <text x="66" y="44" font-family="Inter, sans-serif" font-weight="400" font-size="11" fill="#1C1C1C" letter-spacing="0.3">Freiwillige Feuerwehr</text>
</svg>
